<?xml version="1.0" encoding="UTF-8"?><svg id="Layer_1" xmlns="http://www.w3.org/2000/svg" width="11.2mm" height="11.16mm" viewBox="0 0 31.75 31.63"><defs><style>.cls-1{fill:#feda00;}</style></defs><path class="cls-1" d="M15.87,0c8.77,0,15.87,7.11,15.87,15.87,0,8.12-6.09,14.81-13.95,15.76v-10.91h4.29l.89-4.85h-5.18v-1.72c0-1.28.25-2.17.83-2.74s1.48-.81,2.78-.81c.33,0,.63,0,.9,0,.39,0,.71.03.93.05v-4.4c-.09-.02-.19-.05-.31-.07-.27-.05-.6-.11-.95-.15-.74-.1-1.59-.17-2.19-.17-2.4,0-4.22.51-5.49,1.58-1.53,1.29-2.26,3.37-2.26,6.33v2.09h-3.27v4.85h3.27v10.56C5.12,29.56,0,23.32,0,15.87,0,7.11,7.11,0,15.87,0Z"/></svg>