<?xml version="1.0" encoding="UTF-8"?><svg id="Layer_1" xmlns="http://www.w3.org/2000/svg" width="12mm" height="12mm" viewBox="0 0 34.02 34.02"><defs><style>.cls-1,.cls-2{fill:#feda00;}.cls-2{fill-rule:evenodd;}</style></defs><path class="cls-1" d="M25.47,10.42c-1.05,0-1.91-.85-1.91-1.9,0-1.05.85-1.91,1.9-1.91,1.05,0,1.91.85,1.91,1.9s-.85,1.91-1.9,1.91Z"/><path class="cls-2" d="M17.02,25.16c-4.5,0-8.16-3.63-8.16-8.13,0-4.5,3.63-8.16,8.13-8.17,4.5,0,8.16,3.63,8.17,8.13,0,4.5-3.63,8.16-8.14,8.17ZM17,11.72c-2.92,0-5.29,2.38-5.28,5.3,0,2.92,2.38,5.29,5.3,5.28,2.92,0,5.29-2.38,5.28-5.3,0-2.92-2.38-5.29-5.3-5.28Z"/><path class="cls-2" d="M6.58,1.99c1.01-.39,2.16-.67,3.85-.75,1.69-.08,2.23-.1,6.54-.11,4.31,0,4.85,0,6.54.08,1.69.07,2.84.34,3.85.73,1.04.4,1.93.94,2.82,1.82.88.88,1.43,1.76,1.84,2.81.39,1.01.66,2.16.74,3.85.08,1.69.1,2.23.11,6.54,0,4.31,0,4.85-.08,6.54-.07,1.69-.34,2.84-.73,3.85-.4,1.05-.94,1.93-1.82,2.82-.88.88-1.76,1.43-2.81,1.84-1.01.39-2.16.66-3.85.75-1.69.08-2.23.1-6.54.11-4.31,0-4.85,0-6.54-.08-1.69-.07-2.84-.34-3.85-.73-1.05-.4-1.93-.94-2.82-1.83-.88-.88-1.43-1.76-1.84-2.81-.4-1.01-.67-2.16-.75-3.85-.08-1.69-.1-2.23-.11-6.54,0-4.31,0-4.85.08-6.54.08-1.69.34-2.84.73-3.85.4-1.04.94-1.93,1.82-2.81.88-.88,1.76-1.43,2.81-1.84ZM7.67,29.4c.56.22,1.4.47,2.95.54,1.68.07,2.18.09,6.41.08,4.24,0,4.74-.03,6.41-.1,1.55-.07,2.39-.33,2.95-.55.74-.29,1.27-.64,1.82-1.19.55-.56.9-1.09,1.18-1.83.22-.56.47-1.4.54-2.95.07-1.67.09-2.18.08-6.41,0-4.24-.03-4.74-.11-6.41-.07-1.55-.33-2.39-.55-2.94-.29-.74-.64-1.27-1.19-1.82-.56-.55-1.09-.9-1.83-1.18-.56-.22-1.4-.47-2.95-.54-1.67-.07-2.18-.09-6.42-.08-4.24,0-4.74.03-6.41.1-1.55.07-2.39.33-2.95.55-.74.29-1.27.63-1.82,1.19-.55.56-.9,1.09-1.18,1.83-.22.56-.47,1.4-.54,2.95-.07,1.67-.09,2.18-.08,6.41,0,4.24.03,4.74.1,6.41.07,1.55.33,2.39.55,2.95.29.74.63,1.27,1.19,1.82.56.55,1.09.9,1.83,1.18Z"/></svg>