<?xml version="1.0" encoding="UTF-8"?><svg id="Layer_1" xmlns="http://www.w3.org/2000/svg" width="12mm" height="12mm" viewBox="0 0 34.02 34.02"><defs><style>.cls-1{fill:#feda00;}</style></defs><path class="cls-1" d="M30.53,1.13H3.48c-1.3,0-2.34,1.02-2.34,2.29v27.16c0,1.26,1.05,2.29,2.34,2.29h27.05c1.3,0,2.35-1.03,2.35-2.29V3.42c0-1.26-1.05-2.29-2.35-2.29ZM10.55,28.19h-4.71v-15.15h4.71v15.15ZM8.2,10.97c-1.51,0-2.73-1.22-2.73-2.73s1.22-2.73,2.73-2.73,2.73,1.22,2.73,2.73-1.22,2.73-2.73,2.73ZM28.19,28.19h-4.71v-7.37c0-1.75-.03-4.02-2.45-4.02s-2.82,1.92-2.82,3.89v7.49h-4.7v-15.15h4.51v2.07h.06c.63-1.19,2.16-2.45,4.45-2.45,4.77,0,5.65,3.14,5.65,7.22v8.31Z"/></svg>